<svg xmlns="http://www.w3.org/2000/svg" viewBox="0 0 64 64" fill="none">
  <rect width="64" height="64" rx="32" fill="#0a0a0a"/>
  <path
    d="M18 32c0-6.5 4.2-11 10-11 3.4 0 5.9 1.4 7.6 3.4 1.5-2 3.9-3.4 7.2-3.4 5.8 0 10 4.5 10 11s-4.2 11-10 11c-3.3 0-5.7-1.4-7.2-3.4-1.7 2-4.2 3.4-7.6 3.4-5.8 0-10-4.5-10-11Zm10-7.2c-3.7 0-6.2 2.8-6.2 7.2s2.5 7.2 6.2 7.2c2.2 0 3.8-1 4.9-2.6L30.2 32l2.7-4.6c-1.1-1.6-2.7-2.6-4.9-2.6Zm16.8 0c-2.1 0-3.7 1-4.8 2.5L43.6 32l-2.6 4.7c1.1 1.6 2.7 2.5 4.8 2.5 3.7 0 6.2-2.8 6.2-7.2s-2.5-7.2-6.2-7.2Z"
    fill="#f5f5f5"
  />
  <path
    d="M42.2 38.4c1.3 1.4 3 2.2 5.2 2.2 3.7 0 6.2-2.8 6.2-7.2 0-1.1-.2-2.1-.5-3"
    stroke="#2F6BFF"
    stroke-width="2.4"
    stroke-linecap="round"
  />
</svg>
